<?xml version="1.0" encoding="UTF-8"?>
<svg version="1.1" xmlns="http://www.w3.org/2000/svg" width="512" height="512">
<path d="M0 0 C1.01201477 0.00054382 2.02402954 0.00108765 3.06671143 0.00164795 C19.59887291 0.04238923 35.523992 0.95817716 51.75 4.375 C52.78125 4.58930664 53.8125 4.80361328 54.875 5.02441406 C101.10680927 14.94980561 143.72188765 37.60106665 177.75 70.375 C178.7390332 71.32318604 178.7390332 71.32318604 179.74804688 72.29052734 C189.23630305 81.43497479 197.9762044 90.73234009 205.75 101.375 C206.60806152 102.52605017 207.46613451 103.67709177 208.32421875 104.828125 C214.36236829 113.01930614 219.72095521 121.53304105 224.75 130.375 C225.11448242 131.00680176 225.47896484 131.63860352 225.85449219 132.28955078 C240.78473018 158.37464001 250.26385054 187.71085114 254.75 217.375 C254.92660156 218.49745117 255.10320312 219.61990234 255.28515625 220.77636719 C256.9420586 232.38947743 257.14873513 243.90679945 257.125 255.625 C257.12418427 257.14302216 257.12418427 257.14302216 257.12335205 258.69171143 C257.08261077 275.22387291 256.16682284 291.148992 252.75 307.375 C252.42854004 308.921875 252.42854004 308.921875 252.10058594 310.5 C242.17519439 356.73180927 219.52393335 399.34688765 186.75 433.375 C186.11787598 434.03435547 185.48575195 434.69371094 184.83447266 435.37304688 C175.69002521 444.86130305 166.39265991 453.6012044 155.75 461.375 C154.59894983 462.23306152 153.44790823 463.09113451 152.296875 463.94921875 C144.10569386 469.98736829 135.59195895 475.34595521 126.75 480.375 C126.11819824 480.73948242 125.48639648 481.10396484 124.83544922 481.47949219 C98.75035999 496.40973018 69.41414886 505.88885054 39.75 510.375 C38.62754883 510.55160156 37.50509766 510.72820312 36.34863281 510.91015625 C24.73552257 512.5670586 13.21820055 512.77373513 1.5 512.75 C-0.01802216 512.74918427 -0.01802216 512.74918427 -1.56671143 512.74835205 C-18.09887291 512.70761077 -34.023992 511.79182284 -50.25 508.375 C-51.796875 508.05354004 -51.796875 508.05354004 -53.375 507.72558594 C-99.60680927 497.80019439 -142.22188765 475.14893335 -176.25 442.375 C-176.90935547 441.74287598 -177.56871094 441.11075195 -178.24804688 440.45947266 C-187.73630305 431.31502521 -196.4762044 422.01765991 -204.25 411.375 C-205.10806152 410.22394983 -205.96613451 409.07290823 -206.82421875 407.921875 C-212.86236829 399.73069386 -218.22095521 391.21695895 -223.25 382.375 C-223.61448242 381.74319824 -223.97896484 381.11139648 -224.35449219 380.46044922 C-239.28473018 354.37535999 -248.76385054 325.03914886 -253.25 295.375 C-253.51490234 293.69132324 -253.51490234 293.69132324 -253.78515625 291.97363281 C-255.4420586 280.36052257 -255.64873513 268.84320055 -255.625 257.125 C-255.62445618 256.11298523 -255.62391235 255.10097046 -255.62335205 254.05828857 C-255.58261077 237.52612709 -254.66682284 221.601008 -251.25 205.375 C-251.03569336 204.34375 -250.82138672 203.3125 -250.60058594 202.25 C-240.67519439 156.01819073 -218.02393335 113.40311235 -185.25 79.375 C-184.61787598 78.71564453 -183.98575195 78.05628906 -183.33447266 77.37695312 C-174.19002521 67.88869695 -164.89265991 59.1487956 -154.25 51.375 C-153.09894983 50.51693848 -151.94790823 49.65886549 -150.796875 48.80078125 C-142.60569386 42.76263171 -134.09195895 37.40404479 -125.25 32.375 C-124.61819824 32.01051758 -123.98639648 31.64603516 -123.33544922 31.27050781 C-97.25035999 16.34026982 -67.91414886 6.86114946 -38.25 2.375 C-37.12754883 2.19839844 -36.00509766 2.02179687 -34.84863281 1.83984375 C-23.23552257 0.1829414 -11.71820055 -0.02373513 0 0 Z " fill="#00AA00" transform="translate(255.25,-0.375)"/>
<path d="M0 0 C131.58636364 0 131.58636364 0 145 13 C153.06113444 21.62508211 157.05102002 31.35528043 157.19287109 43.13769531 C157.20893402 44.35797424 157.22499695 45.57825317 157.24154663 46.83551025 C157.28664753 52.48196971 157.3275957 58.12830435 157.35009766 63.77490234 C157.36325479 66.72282214 157.39075829 69.67001935 157.43212891 72.61767578 C157.78629497 98.44699363 158.19740015 129.98027094 139.12109375 149.96875 C121.1553701 166.56331275 95.99781834 162 73 162 C73 194.34 73 226.68 73 260 C48.91 260 24.82 260 0 260 C0 174.2 0 88.4 0 0 Z " fill="#FDFEFD" transform="translate(106,126)"/>
<path d="M0 0 C41.58 0 83.16 0 126 0 C126 16.17 126 32.34 126 49 C108.51 49 91.02 49 73 49 C73 65.83 73 82.66 73 100 C88.84 100 104.68 100 121 100 C121 117.82 121 135.64 121 154 C105.16 154 89.32 154 73 154 C73 173.47 73 192.94 73 213 C90.49 213 107.98 213 126 213 C126 228.51 126 244.02 126 260 C84.42 260 42.84 260 0 260 C0 174.2 0 88.4 0 0 Z " fill="#FDFEFD" transform="translate(281,126)"/>
<path d="M0 0 C9 0 9 0 11.5 1.75 C14.05533166 5.58299748 14.12986923 9.07874972 14.16113281 13.61621094 C14.17074036 14.74549011 14.1803479 15.87476929 14.19024658 17.03826904 C14.19449646 18.25798401 14.19874634 19.47769897 14.203125 20.734375 C14.20882507 22.00033508 14.21452515 23.26629517 14.22039795 24.57061768 C14.22985105 27.2572386 14.23674478 29.94374784 14.24023438 32.63037109 C14.24459049 35.35544436 14.25836968 38.08019592 14.28125 40.80517578 C14.58575632 77.85503696 14.58575632 77.85503696 9.32910156 85.39746094 C7 87 7 87 0 87 C0 58.29 0 29.58 0 0 Z " fill="#02AA02" transform="translate(179,163)"/>
<path d="M0 0 C24.09 0 48.18 0 73 0 C73 0.33 73 0.66 73 1 C49.57 1 26.14 1 2 1 C2.33 5.95 2.66 10.9 3 16 C3.12899382 19.11103649 3.24451464 22.21261113 3.31640625 25.32421875 C3.33723267 26.13906738 3.35805908 26.95391602 3.3795166 27.79345703 C3.44472076 30.42472415 3.50417396 33.05607201 3.5625 35.6875 C3.58367889 36.59722565 3.60485779 37.50695129 3.62667847 38.44424438 C4.11970157 59.96529781 4.06966585 81.4732528 4 103 C23.14 103 42.28 103 62 103 C62 103.33 62 103.66 62 104 C42.86 104 23.72 104 4 104 C4.020625 110.1875 4.04125 116.375 4.0625 122.75 C4.10734122 151.50853306 3.52881079 180.2459135 3 209 C26.1 209 49.2 209 73 209 C73 209.66 73 210.32 73 211 C48.91 211 24.82 211 0 211 C-1.14921302 182.26967455 -1.14921302 182.26967455 -1.12939453 171.0402832 C-1.13114685 169.74502213 -1.13289917 168.44976105 -1.13470459 167.11524963 C-1.13915372 163.64679986 -1.13754007 160.17838078 -1.1343255 156.70993066 C-1.13172392 152.99730892 -1.13416144 149.28468915 -1.13571167 145.57206726 C-1.13751606 139.32351226 -1.13517811 133.07496919 -1.13037109 126.82641602 C-1.12557464 120.52139508 -1.12551758 114.21639784 -1.13037109 107.91137695 C-1.15744018 71.92363959 -0.95500079 35.97927579 0 0 Z " fill="#1DB31D" transform="translate(316,151)"/>
<path d="M0 0 C0.66 0 1.32 0 2 0 C2.88702099 29.63397586 3.15974606 59.24756367 3.13037109 88.89404297 C3.1246812 94.70363166 3.12806174 100.51317442 3.13381481 106.32276154 C3.16553922 144.23344264 2.70322858 182.12370138 1 220 C0.34 220 -0.32 220 -1 220 C-2.01432937 161.10733542 -2.51187555 102.22490183 -1.59383392 43.32735062 C-1.5629653 41.34242006 -1.53309246 39.3574741 -1.50323486 37.37252808 C-1.1025065 11.6486914 -1.1025065 11.6486914 0 0 Z " fill="#0BAD0B" transform="translate(142,146)"/>
<path d="M0 0 C30.98887394 -0.93469921 30.98887394 -0.93469921 41 6.8125 C49.46483202 15.03018364 50.75328163 26.22918106 51.11157227 37.51416016 C51.17092698 41.63507301 51.19373662 45.75374892 51.1875 49.875 C51.18659363 50.97581909 51.18659363 50.97581909 51.18566895 52.09887695 C51.07518608 101.52513616 51.07518608 101.52513616 37.01171875 117.21875 C31.75314584 122.05148744 27.28893838 124.26963014 20.04296875 124.1953125 C18.93115234 124.18886719 17.81933594 124.18242187 16.67382812 124.17578125 C14.9480957 124.15064453 14.9480957 124.15064453 13.1875 124.125 C12.01767578 124.11597656 10.84785156 124.10695313 9.64257812 124.09765625 C6.76150947 124.07413732 3.88086011 124.04126852 1 124 C1 123.67 1 123.34 1 123 C1.589021 122.98541748 2.17804199 122.97083496 2.78491211 122.95581055 C5.50303802 122.88046236 8.22004942 122.78409616 10.9375 122.6875 C11.86369141 122.66494141 12.78988281 122.64238281 13.74414062 122.61914062 C21.03820686 122.33761526 27.68259208 121.33726467 33.75 117.0625 C46.31918817 99.95443832 45.18901884 76.51355737 45.1875 56.3125 C45.18840637 55.53493347 45.18931274 54.75736694 45.19024658 53.95623779 C45.18913775 45.5337666 45.03544784 37.12666775 44.59765625 28.71484375 C44.56544479 28.02288406 44.53323334 27.33092438 44.50004578 26.61799622 C44.07173289 19.36338031 42.12491831 13.85346173 37.8125 8.0625 C31.21193437 3.22208521 23.78546494 2.54399547 15.8125 2.375 C10.4532692 2.21490349 5.27745274 2.05376307 0 1 C0 0.67 0 0.34 0 0 Z " fill="#17B117" transform="translate(179,145)"/>
<path d="M0 0 C1 3 1 3 0.25 5.05078125 C-3.71724961 12.22902351 -8.08781084 17.30888882 -16 20 C-18.86254883 20.22705078 -18.86254883 20.22705078 -21.95703125 20.1953125 C-23.06884766 20.18886719 -24.18066406 20.18242187 -25.32617188 20.17578125 C-26.47666016 20.15902344 -27.62714844 20.14226562 -28.8125 20.125 C-29.98232422 20.11597656 -31.15214844 20.10695313 -32.35742188 20.09765625 C-35.23849053 20.07413732 -38.11913989 20.04126852 -41 20 C-41 19.67 -41 19.34 -41 19 C-40.410979 18.98541748 -39.82195801 18.97083496 -39.21508789 18.95581055 C-36.49696198 18.88046236 -33.77995058 18.78409616 -31.0625 18.6875 C-30.13630859 18.66494141 -29.21011719 18.64238281 -28.25585938 18.61914062 C-20.90454312 18.33540561 -14.17247338 17.39697989 -8.1875 12.875 C-5.76692708 9.69367559 -4.33737071 6.59902939 -2.89453125 2.890625 C-2 1 -2 1 0 0 Z " fill="#28B728" transform="translate(221,249)"/>
<path d="M0 0 C0.66 0 1.32 0 2 0 C2 6.6 2 13.2 2 20 C1.34 20 0.68 20 0 20 C0 24.29 0 28.58 0 33 C-0.33 33 -0.66 33 -1 33 C-1.10611887 21.94005573 -1.00708069 11.0239368 0 0 Z " fill="#31BA31" transform="translate(142,146)"/>
</svg>
